<svg xmlns="http://www.w3.org/2000/svg" width="180" height="78" viewBox="0 0 180 78">
  <defs>
    <style>
      .cls-1 {
        fill: #fff;
        fill-rule: evenodd;
      }
    </style>
  </defs>
  <path id="logo.svg" class="cls-1" d="M626.126,419.233a3.963,3.963,0,0,0,1.159-2.707c0-2.05-1.032-3.662-4.381-3.662H609.93V426.8h13.479c3.349,0,4.8-1.712,4.8-4.06A3.9,3.9,0,0,0,626.126,419.233Zm-12.4-3.781h7.814c1.032,0,1.959,0,1.959,1.433,0,1.453-.927,1.453-1.938,1.453h-7.835v-2.886Zm8.762,8.579h-8.762v-2.946h8.762c1.011,0,1.937,0,1.937,1.472S623.494,424.031,622.483,424.031Zm17.092-.239V412.864h-3.791V426.8h15.164v-3.005H639.575Zm34.888,3.005h4.191l-7.624-13.933h-5.118l-7.6,13.933h4.17l1.58-2.965h8.824Zm-8.993-5.633,3.012-5.653,2.99,5.653h-6ZM684,419.811c0,4.637,2.78,7.186,9.267,7.186,5.876,0,8.824-2.13,9.2-6.171h-3.854c-0.358,2.269-2.211,3.164-5.349,3.164-3.833,0-5.476-1.313-5.476-4.179,0-2.847,1.622-4.141,5.476-4.141,3.159,0,4.991.876,5.349,3.125h3.854c-0.379-4.02-3.327-6.131-9.2-6.131C686.775,412.664,684,415.192,684,419.811Zm46.22-6.947h-5.749l-10.51,7.225v-7.225h-3.791V426.8h3.791V424.13l4.528-3.125,6.487,5.792h5.244l-8.93-7.743Zm22.7,3.005v-3.005H737.326V426.8h3.791v-4.359h10.531v-3.025H741.117v-3.544h11.794Zm11.363-3.005h-3.791V426.8h3.791V412.864Zm25.679,0H771.84v3.005H779V426.8h3.791V415.869h7.161v-3.005Zm-70.3-43.928c-0.346,3.82,2.06,4.077,2.374,7.453a27.849,27.849,0,0,1-.2,5.584,4.871,4.871,0,0,1-2.717-3.378c-0.634,2.006-.453,3.365-0.543,7.972s-4.823,8.173-4.823,8.173a16.964,16.964,0,0,0-1.834-11.348c-3.215-6.068-1.879-8.692-1.019-14.794a9.179,9.179,0,0,0-3.328-8.916,5.236,5.236,0,0,1,5.5,1.013,3.55,3.55,0,0,0-3.532-3.58,2.81,2.81,0,0,0-.272-2.77c-4.642,5.755-9.645,1.014-9.645,1.014V355.35s-5,4.742-9.646-1.012a2.809,2.809,0,0,0-.272,2.77,3.55,3.55,0,0,0-3.532,3.581,5.238,5.238,0,0,1,5.5-1.013,9.182,9.182,0,0,0-3.328,8.919c0.86,6.1,2.2,8.729-1.019,14.8a16.978,16.978,0,0,0-1.834,11.353s-4.732-3.57-4.823-8.177,0.091-5.967-.543-7.973a4.873,4.873,0,0,1-2.717,3.379,35.363,35.363,0,0,1-.133-5.585c0.288-3.714,2.652-3.635,2.306-7.457,0,0-2.015,2.639-4.822,2.636a35.318,35.318,0,0,0,2.785-6.555,16.073,16.073,0,0,1,3.192-5.811,2.142,2.142,0,0,0-1.766.812s-2.966-3.392-.611-6.487,6.317-2,7.879-1.149c0,0,3.419-3.3,4.619-3.379s8.763,1.96,8.763,1.96v0.009s7.562-2.035,8.762-1.959S713,352.386,713,352.386c1.562-.845,5.525-1.946,7.879,1.149s-0.611,6.483-.611,6.483a2.145,2.145,0,0,0-1.766-.809,16.063,16.063,0,0,1,3.192,5.81,35.281,35.281,0,0,0,2.785,6.551C721.667,371.574,719.652,368.936,719.652,368.936Zm-37.971-15.612a2.56,2.56,0,0,0-2.106,3.648,1.335,1.335,0,0,1,1.631-1.081c0.928,0.281.679,1.757,0.679,1.757l2.921-3.446A4.421,4.421,0,0,0,681.681,353.324Zm37.971,3.655a2.559,2.559,0,0,0-2.106-3.647,4.425,4.425,0,0,0-3.125.879l2.921,3.445s-0.249-1.476.679-1.757A1.335,1.335,0,0,1,719.652,356.979Zm-20.038,9.25v0.006a6.509,6.509,0,0,1,4.279,1.147,2.527,2.527,0,0,0,1.63-1.013c1.336,4.7-1.7,6.013-1.7,6.013l-0.272-2.432-1.426.742-1.019-1.013a2.756,2.756,0,0,1-1.494,1.217v0a2.754,2.754,0,0,1-1.5-1.216l-1.019,1.013-1.426-.744-0.272,2.434s-3.034-1.311-1.7-6.014a2.527,2.527,0,0,0,1.63,1.013A6.512,6.512,0,0,1,699.614,366.229Zm-4.076,9.933c0.113-2.54,2.377-3.022,2.785-1.418s0.589,3.513,1.291,3.513h0c0.7,0,.883-1.908,1.29-3.511s2.672-1.122,2.785,1.418c-0.475,6.119-4.075,6.282-4.075,6.282h0S696.013,382.284,695.538,376.162Zm0.815,11.352a1.56,1.56,0,0,0-.407,1.217s-4.37-2.955-2.038-8.919c0,0,.022,3.757,2.377,5.2a2.288,2.288,0,0,1,1.087-.879,1.83,1.83,0,0,1,1.019,1.013,2.005,2.005,0,0,1,1.223-1.081h0a2.006,2.006,0,0,1,1.222,1.081,1.829,1.829,0,0,1,1.019-1.014,2.288,2.288,0,0,1,1.087.879c2.355-1.447,2.377-5.2,2.377-5.2,2.332,5.961-2.037,8.917-2.037,8.917a1.561,1.561,0,0,0-.408-1.217c-0.77,1.235-3.26,1.08-3.26,1.08v0S697.123,388.748,696.353,387.514Zm-5.706-30.271c2.015-.327,2.038,1.081,2.038,1.081a3.71,3.71,0,0,0-1.291.136C690.652,358.527,690.647,357.243,690.647,357.243Zm6.793,5.54c0,2.614-2.713,1.392-4.144,2.23a2.775,2.775,0,0,0-1.7,2.434s-3.035-6.178,1.63-7.3a2.954,2.954,0,0,1,4.212-1.216s-2.56.074-2.785,2.364C694.655,361.3,697.44,360.171,697.44,362.783Zm11.14-5.533s0,1.283-.747,1.216a3.779,3.779,0,0,0-1.291-.135S706.565,356.923,708.58,357.25Zm-0.951,10.2a2.77,2.77,0,0,0-1.7-2.432c-1.431-.84-4.144.382-4.144-2.23s2.785-1.487,2.785-1.487c-0.225-2.29-2.785-2.363-2.785-2.363A2.953,2.953,0,0,1,706,360.154C710.664,361.275,707.629,367.451,707.629,367.451Zm-16.642,9.59a15.364,15.364,0,0,1,.883,6.621,15.69,15.69,0,0,0,.679,6.352,0.837,0.837,0,0,1,1.291-.2,6.808,6.808,0,0,0,5.774,2.094v0a6.792,6.792,0,0,0,5.773-2.094,0.837,0.837,0,0,1,1.291.2,15.681,15.681,0,0,0,.679-6.349,15.357,15.357,0,0,1,.883-6.62,11.943,11.943,0,0,0,.951,5.877c0.929,2.134,2.513,4.936,1.7,9.254s-6.656,7.633-6.656,7.633a13.33,13.33,0,0,1,.2-2.769,15.421,15.421,0,0,1-4.822,5.067v0.006a15.428,15.428,0,0,1-4.823-5.068,13.39,13.39,0,0,1,.2,2.771s-5.842-3.317-6.657-7.636,0.77-7.122,1.7-9.257A11.95,11.95,0,0,0,690.987,377.041Z" transform="translate(-609.938 -349)"/>
</svg>
